<svg xmlns="http://www.w3.org/2000/svg" viewBox="0 0 192.27 172.7"><defs><style>.cls-1{fill:#fff;}.cls-2{fill:#ed2024;}.cls-3{fill:#224922;}.cls-4{fill:#ae852d;}.cls-5{fill:#e2edec;}.cls-6{fill:#b5b6b6;}.cls-7{fill:#454546;}.cls-13,.cls-8{fill:none;}.cls-9{fill:#231f20;}.cls-10{fill:#61608a;}.cls-11{fill:#726658;stroke-width:3px;}.cls-11,.cls-13{stroke:#fff;stroke-miterlimit:10;}.cls-12{fill:#282543;}.cls-13{stroke-width:6.51px;}</style></defs><title>Asset 8</title><g id="Layer_2" data-name="Layer 2"><g id="Layer_1-2" data-name="Layer 1"><path class="cls-1" d="M27.81,59.88c-4.25,19.09,3.7,41.73,23,65.56,11.35,14,28.76,24.5,41.47,32.16,2.22,1.34,4.34,2.62,6.26,3.81,1.91-1.19,4-2.47,6.25-3.81,12.71-7.66,30.12-18.16,41.47-32.16,19.32-23.83,27.26-46.47,23-65.56-13.16-12.6-13.14-25.19-12.2-31-8.56-2.59-35-9.94-58.54-9.94s-50,7.35-58.55,9.93C41,34.69,41,47.28,27.81,59.88Z"/><path class="cls-2" d="M148.16,30.3v87.37c15.18-20.38,21.52-39.53,18.39-55.75C155.2,50.56,153.33,39.21,153.7,31.81,152.14,31.36,150.27,30.85,148.16,30.3Z"/><path class="cls-2" d="M50.94,30.3c-2.12.55-4,1.06-5.54,1.51.37,7.39-1.51,18.75-12.86,30.11-3.12,16.22,3.22,35.37,18.4,55.75Z"/><path class="cls-3" d="M141.58,28.66c-11.69-2.75-27.52-5.67-42-5.67S69.27,25.9,57.6,28.64V125.9c10.87,12,26.29,21.29,37.81,28.23l4.14,2.5,4.15-2.51c11.53-7,27-16.29,37.88-28.3Z"/><path class="cls-4" d="M97.06,169.27c-2.23-1.43-4.92-3.06-7.77-4.77-13.28-8-31.38-18.92-43.61-34C24.41,104.25,16,78.85,21.32,57.05l.34-1.39,1.05-1c14.42-13.3,10.23-25.88,10-26.41l-1.69-4.6,4.66-1.55c1.38-.45,34.19-11.22,63.91-11.22s62.52,10.77,63.9,11.22l4.67,1.55-1.7,4.61c-.18.51-4.39,13.08,10,26.4l1.05,1,.34,1.39c5.33,21.8-3.09,47.2-24.35,73.43-12.24,15.1-30.34,26-43.56,34-2.86,1.73-5.57,3.36-7.83,4.81l-2.56,1.64ZM30.26,60.64c-3.92,18.53,4,40.6,22.8,63.86,11.19,13.79,28.47,24.21,41.08,31.82l.19.11c1.86,1.12,3.64,2.2,5.3,3.22,1.71-1.06,3.56-2.17,5.48-3.33,12.62-7.61,29.9-18,41.08-31.82C165,101.24,172.92,79.17,169,60.64c-12.31-12-13.28-23.92-12.49-30.71-9-2.66-34.47-9.51-56.88-9.51s-47.88,6.85-56.89,9.5C43.54,36.72,42.56,48.66,30.26,60.64Z"/><path class="cls-1" d="M99.63,12.41c29.46,0,62.06,10.69,63.43,11.15l3.19,1.06-1.16,3.15c-.19.55-4.71,14,10.43,28l.72.67.24.95c5.21,21.33-3.11,46.27-24.07,72.13-12.07,14.89-30,25.73-43.17,33.64-2.87,1.73-5.59,3.37-7.86,4.82l-1.75,1.13L97.87,168c-2.27-1.45-5-3.09-7.86-4.82-13.13-7.91-31.1-18.75-43.17-33.64-21-25.86-29.28-50.8-24.06-72.13l.23-.95.72-.67C39,41.66,34.21,27.91,34.16,27.77L33,24.62l3.19-1.06c1.38-.46,34-11.15,63.44-11.15m0,149c1.91-1.19,4-2.47,6.25-3.81,12.71-7.66,30.12-18.16,41.47-32.16,19.32-23.83,27.26-46.47,23-65.56-13.16-12.6-13.14-25.19-12.19-31-8.57-2.59-35-9.94-58.55-9.94s-50,7.35-58.55,9.93c1,5.84,1,18.43-12.19,31-4.25,19.09,3.7,41.73,23,65.56,11.35,14,28.76,24.5,41.47,32.16,2.22,1.34,4.34,2.62,6.26,3.81m0-152c-29.95,0-63,10.84-64.38,11.3l-3.19,1.06-3,1,1.07,2.9,1.17,3.16c.15.45,3.95,12.22-9.65,24.78l-.72.66-.67.61-.21.88-.24,1C14.42,79,22.94,104.81,44.51,131.43c12.4,15.3,30.63,26.29,43.94,34.31,2.87,1.73,5.57,3.36,7.8,4.79L98,171.66l1.62,1,1.62-1,1.75-1.13c2.24-1.44,4.94-3.06,7.79-4.78,13.32-8,31.55-19,44-34.32,21.57-26.62,30.1-52.46,24.65-74.73l-.23-1-.22-.88-.66-.61-.72-.67c-13.67-12.61-9.81-24.32-9.64-24.81l1.15-3.12,1.07-2.9-2.94-1L164,20.71c-1.4-.46-34.43-11.3-64.38-11.3ZM44.35,31c9.84-2.84,33.95-9.1,55.28-9.1s45.43,6.26,55.27,9.1c-.55,7.19,1,18.77,12.72,30.37,3.61,18-4.19,39.45-22.6,62.16-11,13.6-28.16,23.93-40.68,31.48-1.58.95-3.19,1.92-4.71,2.86-1.48-.91-3-1.85-4.68-2.84-12.55-7.57-29.7-17.9-40.72-31.5C35.83,100.84,28,79.37,31.63,61.39,43.36,49.79,44.9,38.2,44.35,31Z"/><path class="cls-1" d="M136.73,15.93a51.3,51.3,0,1,0-1.84,72.53A51.36,51.36,0,0,0,136.73,15.93Z"/><circle class="cls-5" cx="99.55" cy="51.28" r="46.64" transform="translate(3.48 108.82) rotate(-58.17)"/><path class="cls-6" d="M71.75,50.91a37.06,37.06,0,0,0,63.73-29.34A46.63,46.63,0,1,1,61.57,24.2,37,37,0,0,0,71.75,50.91Z"/><path class="cls-7" d="M67.41,17.48A46.6,46.6,0,0,0,92.89,97.4h0a46.64,46.64,0,0,0,35-9.1l.39-.1,0-.17q1.77-1.38,3.44-3a46.3,46.3,0,0,0,5.91-6.84h0v0a46.63,46.63,0,0,0-70.2-60.73Zm.83.86a45.24,45.24,0,0,1,27-12.27L97.12,9c-2.72,1.87-8.49,6.19-12.29,11.56-4,.68-12.14,2.84-17.07,6.16l-3.67-3.87A46.38,46.38,0,0,1,68.24,18.34ZM65.37,48A76.31,76.31,0,0,1,79,51.6c.49,3.41,2.38,13.31,8.4,21.17a133.89,133.89,0,0,1-8.3,11.35c-3.51-1.11-11-3.69-15.6-7.06-2-3.63-7-13.65-5.74-18.44C59.65,54.15,63.22,50.14,65.37,48ZM108,76.71c6.31-4.69,11.58-12.94,13.56-16.27a52.6,52.6,0,0,0,14.62-1.59c1,4.22,2.84,14.21.39,18.73a45.17,45.17,0,0,1-5.73,6.63q-1.7,1.61-3.49,3c-2.3.57-10.73,2.53-17.13,2.21C110,87.41,108.92,79.94,108,76.71Zm-19.12-4C83.05,65.44,81,55.87,80.32,52L92.07,37.72c9-.4,18.9,3.08,22.58,4.52,2.53,4.09,5.1,13.72,5.68,17.94-2.11,3.49-7.25,11.34-13.18,15.68A180.34,180.34,0,0,0,88.9,72.69Zm-3-51.59c3.9-5.4,10-9.8,12.34-11.4,2.67.13,12.1.69,16.51,2.5a44.39,44.39,0,0,1,10.64,15.93c-2,1.95-8.42,8.81-11.79,12.43-4.41-1.63-13-4.3-21.05-4.06C91.87,34.47,88.79,25.78,85.92,21.1ZM132.48,20a45.11,45.11,0,0,1,10,16.57L139,39.19c-1.69-1.77-7.51-7.7-12.06-10.39A45.93,45.93,0,0,0,116.2,11.93l2.13-2A45.16,45.16,0,0,1,132.48,20Zm6.33,54.17c.74-5.82-1-13.71-1.66-16.52,2.07-4.88,2.31-14.74,2.33-17.3l3.43-2.58A45.66,45.66,0,0,1,138.81,74.14ZM93.18,96.24l.27-1.4A68.4,68.4,0,0,0,109,90.53c5.15.5,11.8-.64,15.78-1.5A45.49,45.49,0,0,1,93.18,96.24ZM66.61,82.58a45.57,45.57,0,0,1-3.44-4.08l.3,0c5.11,3.49,12.74,6,15.88,7a39.63,39.63,0,0,0,12.94,9.1L92,96.06A45.17,45.17,0,0,1,66.61,82.58ZM63.34,23.82,67,27.64c-1.5,3.14-2.74,14.78-2.66,19.7A36.71,36.71,0,0,0,56.79,58c-.93-.55-1.75-1-2.35-1.33A45.53,45.53,0,0,1,63.34,23.82Z"/><path class="cls-7" d="M67.41,17.48A46.6,46.6,0,0,0,92.89,97.4h0a46.64,46.64,0,0,0,35-9.1l.39-.1,0-.17q1.77-1.38,3.44-3a46.3,46.3,0,0,0,5.91-6.84h0v0a46.63,46.63,0,0,0-70.2-60.73Zm.83.86a45.24,45.24,0,0,1,27-12.27L97.12,9c-2.72,1.87-8.49,6.19-12.29,11.56-4,.68-12.14,2.84-17.07,6.16l-3.67-3.87A46.38,46.38,0,0,1,68.24,18.34ZM65.37,48A76.31,76.31,0,0,1,79,51.6c.49,3.41,2.38,13.31,8.4,21.17a133.89,133.89,0,0,1-8.3,11.35c-3.51-1.11-11-3.69-15.6-7.06-2-3.63-7-13.65-5.74-18.44C59.65,54.15,63.22,50.14,65.37,48ZM108,76.71c6.31-4.69,11.58-12.94,13.56-16.27a52.6,52.6,0,0,0,14.62-1.59c1,4.22,2.84,14.21.39,18.73a45.17,45.17,0,0,1-5.73,6.63q-1.7,1.61-3.49,3c-2.3.57-10.73,2.53-17.13,2.21C110,87.41,108.92,79.94,108,76.71Zm-19.12-4C83.05,65.44,81,55.87,80.32,52L92.07,37.72c9-.4,18.9,3.08,22.58,4.52,2.53,4.09,5.1,13.72,5.68,17.94-2.11,3.49-7.25,11.34-13.18,15.68A180.34,180.34,0,0,0,88.9,72.69Zm-3-51.59c3.9-5.4,10-9.8,12.34-11.4,2.67.13,12.1.69,16.51,2.5a44.39,44.39,0,0,1,10.64,15.93c-2,1.95-8.42,8.81-11.79,12.43-4.41-1.63-13-4.3-21.05-4.06C91.87,34.47,88.79,25.78,85.92,21.1ZM132.48,20a45.11,45.11,0,0,1,10,16.57L139,39.19c-1.69-1.77-7.51-7.7-12.06-10.39A45.93,45.93,0,0,0,116.2,11.93l2.13-2A45.16,45.16,0,0,1,132.48,20Zm6.33,54.17c.74-5.82-1-13.71-1.66-16.52,2.07-4.88,2.31-14.74,2.33-17.3l3.43-2.58A45.66,45.66,0,0,1,138.81,74.14ZM93.18,96.24l.27-1.4A68.4,68.4,0,0,0,109,90.53c5.15.5,11.8-.64,15.78-1.5A45.49,45.49,0,0,1,93.18,96.24ZM66.61,82.58a45.57,45.57,0,0,1-3.44-4.08l.3,0c5.11,3.49,12.74,6,15.88,7a39.63,39.63,0,0,0,12.94,9.1L92,96.06A45.17,45.17,0,0,1,66.61,82.58ZM63.34,23.82,67,27.64c-1.5,3.14-2.74,14.78-2.66,19.7A36.71,36.71,0,0,0,56.79,58c-.93-.55-1.75-1-2.35-1.33A45.53,45.53,0,0,1,63.34,23.82Z"/><path class="cls-7" d="M67.41,17.48A46.6,46.6,0,0,0,92.89,97.4h0a46.64,46.64,0,0,0,35-9.1l.39-.1,0-.17q1.77-1.38,3.44-3a46.3,46.3,0,0,0,5.91-6.84h0v0a46.63,46.63,0,0,0-70.2-60.73Zm.83.86a45.24,45.24,0,0,1,27-12.27L97.12,9c-2.72,1.87-8.49,6.19-12.29,11.56-4,.68-12.14,2.84-17.07,6.16l-3.67-3.87A46.38,46.38,0,0,1,68.24,18.34ZM65.37,48A76.31,76.31,0,0,1,79,51.6c.49,3.41,2.38,13.31,8.4,21.17a133.89,133.89,0,0,1-8.3,11.35c-3.51-1.11-11-3.69-15.6-7.06-2-3.63-7-13.65-5.74-18.44C59.65,54.15,63.22,50.14,65.37,48ZM108,76.71c6.31-4.69,11.58-12.94,13.56-16.27a52.6,52.6,0,0,0,14.62-1.59c1,4.22,2.84,14.21.39,18.73a45.17,45.17,0,0,1-5.73,6.63q-1.7,1.61-3.49,3c-2.3.57-10.73,2.53-17.13,2.21C110,87.41,108.92,79.94,108,76.71Zm-19.12-4C83.05,65.44,81,55.87,80.32,52L92.07,37.72c9-.4,18.9,3.08,22.58,4.52,2.53,4.09,5.1,13.72,5.68,17.94-2.11,3.49-7.25,11.34-13.18,15.68A180.34,180.34,0,0,0,88.9,72.69Zm-3-51.59c3.9-5.4,10-9.8,12.34-11.4,2.67.13,12.1.69,16.51,2.5a44.39,44.39,0,0,1,10.64,15.93c-2,1.95-8.42,8.81-11.79,12.43-4.41-1.63-13-4.3-21.05-4.06C91.87,34.47,88.79,25.78,85.92,21.1ZM132.48,20a45.11,45.11,0,0,1,10,16.57L139,39.19c-1.69-1.77-7.51-7.7-12.06-10.39A45.93,45.93,0,0,0,116.2,11.93l2.13-2A45.16,45.16,0,0,1,132.48,20Zm6.33,54.17c.74-5.82-1-13.71-1.66-16.52,2.07-4.88,2.31-14.74,2.33-17.3l3.43-2.58A45.66,45.66,0,0,1,138.81,74.14ZM93.18,96.24l.27-1.4A68.4,68.4,0,0,0,109,90.53c5.15.5,11.8-.64,15.78-1.5A45.49,45.49,0,0,1,93.18,96.24ZM66.61,82.58a45.57,45.57,0,0,1-3.44-4.08l.3,0c5.11,3.49,12.74,6,15.88,7a39.63,39.63,0,0,0,12.94,9.1L92,96.06A45.17,45.17,0,0,1,66.61,82.58ZM63.34,23.82,67,27.64c-1.5,3.14-2.74,14.78-2.66,19.7A36.71,36.71,0,0,0,56.79,58c-.93-.55-1.75-1-2.35-1.33A45.53,45.53,0,0,1,63.34,23.82Z"/><path class="cls-1" d="M79.39,14.85a52.5,52.5,0,0,1,25.32-10A46.74,46.74,0,0,0,62.6,79.22c.08.12.17.22.25.33A53,53,0,0,1,79.39,14.85Z"/><path class="cls-8" d="M84.39,19.88A51.39,51.39,0,0,1,96.08,8.81l-1.2-1.9c-.58.06-1.15.14-1.73.22A44.32,44.32,0,0,0,68.79,18.92a46.55,46.55,0,0,0-3.66,3.94l2.75,2.89C73,22.51,80.67,20.54,84.39,19.88Z"/><path class="cls-8" d="M98.48,10.48A52.15,52.15,0,0,0,86.84,21.15c2.64,4.49,5.39,12.07,6.27,14.57,7.76-.1,15.84,2.34,20.3,3.94,3.09-3.32,8.8-9.43,11.1-11.72a43.51,43.51,0,0,0-10.16-15.08C110.15,11.19,101.46,10.63,98.48,10.48Z"/><path class="cls-8" d="M114.13,42.86c-3.88-1.5-13.19-4.68-21.68-4.39L81.13,52.23c.68,3.9,2.73,12.85,8.17,19.74C97.51,73,104.53,74.48,107,75c5.62-4.24,10.54-11.72,12.55-15C118.93,56,116.53,46.92,114.13,42.86Z"/><path class="cls-8" d="M138,57.69a62.27,62.27,0,0,1,1.8,13l.41-.87A44.78,44.78,0,0,0,142.46,39l-2.22,1.67C140.2,43.92,139.89,52.85,138,57.69Z"/><path class="cls-8" d="M109.17,91.31A69.45,69.45,0,0,1,94.1,95.52v0c.57.07,1.14.12,1.72.17l.65,0a45.24,45.24,0,0,0,6.05,0l.4,0a43.8,43.8,0,0,0,6.12-.88l.17,0q1.93-.42,3.84-1l.31-.1A43.68,43.68,0,0,0,119,91.46l.62-.3c.36-.18.71-.37,1.06-.56A48.12,48.12,0,0,1,109.17,91.31Z"/><path class="cls-8" d="M78.9,83.24c1.7-1.95,5.28-7,7.6-10.44C80.93,65.27,79,56.2,78.35,52.17a75.88,75.88,0,0,0-12.71-3.38,35,35,0,0,0-7.13,10.13c-1.17,4.42,3.89,14.41,5.62,17.62C68.53,79.7,75.6,82.18,78.9,83.24Z"/><path class="cls-8" d="M130.3,83.63A44.8,44.8,0,0,0,136,77c2-4.06.52-12.88-.42-17.22A52.07,52.07,0,0,1,122,61.22c-2.11,3.51-7.1,11.15-13.11,15.79.8,3.16,1.66,9.09,2,11.67,6,.16,13.46-1.53,16-2.16A43.6,43.6,0,0,0,130.3,83.63Z"/><path class="cls-8" d="M78.92,86.11a76.43,76.43,0,0,1-12.6-5c.29.32.57.65.88,1a44.37,44.37,0,0,0,24.19,13.1l0-.14A40.7,40.7,0,0,1,78.92,86.11Z"/><path class="cls-8" d="M118.45,10.85,117.29,12l.41.42a46.8,46.8,0,0,1,9.87,15.91c4.22,2.58,9.41,7.73,11.51,9.89l2.5-1.88a44.47,44.47,0,0,0-23.13-25.44Z"/><path class="cls-8" d="M55.2,56.16l1.24.7A37.65,37.65,0,0,1,63.54,47c0-4.67,1.06-15.4,2.53-19.23L63.44,25A44.7,44.7,0,0,0,55.2,56.16Z"/><path class="cls-9" d="M134.79,17.77a48.63,48.63,0,1,0-1.73,68.75A48.67,48.67,0,0,0,134.79,17.77Zm-15.2,73.39-.62.3a43.68,43.68,0,0,1-5.62,2.26l-.31.1q-1.91.6-3.84,1l-.17,0a43.8,43.8,0,0,1-6.12.88l-.4,0a45.24,45.24,0,0,1-6.05,0l-.65,0c-.58,0-1.15-.1-1.72-.17v0a69.45,69.45,0,0,0,15.07-4.21,48.12,48.12,0,0,0,11.48-.71C120.3,90.79,120,91,119.59,91.16ZM68.79,18.92A44.29,44.29,0,0,1,93.15,7.13c.58-.08,1.15-.16,1.73-.22l1.2,1.9A51.39,51.39,0,0,0,84.39,19.88c-3.72.66-11.39,2.63-16.51,5.87l-2.75-2.89A46.55,46.55,0,0,1,68.79,18.92ZM142.46,39a44.82,44.82,0,0,1-2.3,30.74l-.41.87a62.27,62.27,0,0,0-1.8-13c1.94-4.84,2.25-13.77,2.29-17ZM107,75C104.53,74.48,97.51,73,89.3,72c-5.44-6.89-7.49-15.84-8.17-19.74L92.45,38.47c8.49-.29,17.8,2.89,21.68,4.39,2.4,4.06,4.8,13.15,5.4,17.16C117.52,63.31,112.6,70.79,107,75Zm17.53-47.09c-2.3,2.29-8,8.4-11.1,11.72-4.46-1.6-12.54-4-20.3-3.94-.88-2.5-3.63-10.08-6.27-14.57A52.15,52.15,0,0,1,98.48,10.48c3,.15,11.67.71,15.87,2.38A43.51,43.51,0,0,1,124.51,27.94Zm-66,31a35,35,0,0,1,7.13-10.13,75.88,75.88,0,0,1,12.71,3.38c.63,4,2.58,13.1,8.15,20.63-2.32,3.44-5.9,8.49-7.6,10.44-3.3-1.06-10.37-3.54-14.77-6.7C62.4,73.33,57.34,63.34,58.51,58.92Zm80.57-20.75c-2.1-2.16-7.29-7.31-11.51-9.89a46.8,46.8,0,0,0-9.87-15.91l-.41-.42,1.16-1.1a44.47,44.47,0,0,1,23.13,25.44Zm-73-10.37C64.6,31.63,63.53,42.36,63.54,47a37.65,37.65,0,0,0-7.1,9.83l-1.24-.7A44.7,44.7,0,0,1,63.44,25ZM67.2,82c-.31-.32-.59-.65-.88-1a76.43,76.43,0,0,0,12.6,5A40.7,40.7,0,0,0,91.42,95l0,.14A44.37,44.37,0,0,1,67.2,82Zm43.71,6.65c-.36-2.58-1.22-8.51-2-11.67,6-4.64,11-12.28,13.11-15.79a52.07,52.07,0,0,0,13.62-1.46c.94,4.34,2.45,13.16.42,17.22a44.8,44.8,0,0,1-5.74,6.65,43.6,43.6,0,0,1-3.37,2.89C124.37,87.15,116.89,88.84,110.91,88.68Z"/><path class="cls-10" d="M106.62,75.86c-6.58-1.2-14.33-2.73-18.48-2.62a111.45,111.45,0,0,0-8.4,11.55L89,75.29Z"/><path class="cls-10" d="M84.55,20.93c-5.23,1.17-13,3.86-17,6.4C66.32,30.53,64.91,42.82,65,46.7L69.2,28.26Z"/><path class="cls-10" d="M126.18,29.05a74.12,74.12,0,0,0-11.13,11.67c2.33,6,4.48,12.67,6.21,18.13l-4-18Z"/><path class="cls-11" d="M160.72,160.63c-46.27-14.17-78.36-13.17-122.18,0,.85-5.51,1-12.59,2.49-18.12-5.09-4.33-9.47-8-15.15-12.09a339.79,339.79,0,0,1,147.5,0c-5.74,4.22-10.18,8-15.3,12.48C159.6,148.31,159.81,155.25,160.72,160.63Z"/><path class="cls-1" d="M57.76,133.88a6.7,6.7,0,0,0-.32,1.59c-.09,1.06-.15,1.71-.2,1.95l0,.07-.08-.15a9.17,9.17,0,0,0-.68-1.13,2.38,2.38,0,0,0-.59-.54,2.28,2.28,0,0,0-1.86-.36,2,2,0,0,0-1.27,1,2.07,2.07,0,0,0-.16,1.61c.3,1.08,1.16,1.63,2.59,1.68l1.42.05a3.64,3.64,0,0,1,3.72,3,4.2,4.2,0,0,1-.29,2.92,3,3,0,0,1-2,1.66,6.78,6.78,0,0,1-2,.17l-1,0a3,3,0,0,0-.92.08,1.61,1.61,0,0,0-.83.65l-.1-.12a16.36,16.36,0,0,0,.33-3.82h.15a4.13,4.13,0,0,0,1.61,2.1,2.83,2.83,0,0,0,2.29.29,2.2,2.2,0,0,0,1.44-1,2.28,2.28,0,0,0,.19-1.78A2.56,2.56,0,0,0,57.89,142a6.32,6.32,0,0,0-2.77-.36,4,4,0,0,1-2.44-.61,3.77,3.77,0,0,1-1.32-2.12,3.6,3.6,0,0,1,.19-2.74,3.21,3.21,0,0,1,2.11-1.6,7.09,7.09,0,0,1,2.3-.16,3.65,3.65,0,0,0,.92,0,1.63,1.63,0,0,0,.78-.55Zm1.5,6.23A3.68,3.68,0,0,1,61,142.62a4.84,4.84,0,0,1-.37,3.43,3.55,3.55,0,0,1-2.36,2,4.71,4.71,0,0,1-1.5.17l-1.29-.05a2.7,2.7,0,0,0-.93.11,1.49,1.49,0,0,0-.72.44l-.17-.25a1.56,1.56,0,0,1,.72-.46,3.83,3.83,0,0,1,1.07-.11l1.24,0a5.12,5.12,0,0,0,1.5-.17,3.42,3.42,0,0,0,2.24-1.88,4.68,4.68,0,0,0,.34-3.27,4.41,4.41,0,0,0-1.46-2.43Zm-6.58,1.36.31.11a2.38,2.38,0,0,0,1.76.53l1.34.06a7.44,7.44,0,0,1,1.85.25,1.68,1.68,0,0,1,.82.73l0,0a2.4,2.4,0,0,0-.93-.55,8.08,8.08,0,0,0-1.69-.18,11.45,11.45,0,0,1-2.46-.23A1.46,1.46,0,0,1,52.68,141.47Zm1.83,2.87a3.48,3.48,0,0,0,2.17,2.06l0,.08a3,3,0,0,1-2.38-2Zm2-7.65a2.48,2.48,0,0,0-2.17-.66,1.32,1.32,0,0,0-.89.7,1.56,1.56,0,0,0-.1,1.19,2.2,2.2,0,0,0,1.19,1.26l.08,0,0,.08a1.88,1.88,0,0,1-1.49-1.37,1.8,1.8,0,0,1,.11-1.36,1.54,1.54,0,0,1,1-.78,2.13,2.13,0,0,1,1.3,0,2.1,2.1,0,0,1,1,.8Zm1.85-2.52,0,.17a11.5,11.5,0,0,0-.25,1.42c-.14,1.05-.22,1.63-.24,1.76l0,.07-.21-.05v-.09c0-.47.13-1.08.25-1.85.09-.57.14-.85.23-1.42l0-.09Z"/><path class="cls-1" d="M68.11,131.58l-.09.21a10,10,0,0,0-.78,3.08l-.19-.31a3.17,3.17,0,0,0-1.24-1.35,3.49,3.49,0,0,0-1.89,0c-.41.08-.89.2-1.45.36.39,1.81.59,2.71,1,4.52L64,138l-.85-4a9.44,9.44,0,0,1,1.15-.31,3.32,3.32,0,0,1,1.56,0,2.23,2.23,0,0,1,1.06.87l-.19-.12a4.19,4.19,0,0,0-1.08-.57,3.58,3.58,0,0,0-1.17.12c-.17,0-.47.11-.91.23l-.16,0c.31,1.5.47,2.24.78,3.74l1.45-.3c.27-.78.4-1.17.68-1.95L67.1,140c-.53-.59-.8-.87-1.34-1.45l-2.13.44c.47,2.21.71,3.31,1.18,5.52l.49-.11-1.07-5.05,1.69-.35.26.21-1.7.35,1,4.8a6.15,6.15,0,0,0,2.14-.73,2.12,2.12,0,0,0,.81-1.32c.1-.39.14-.59.24-1,0,0,0-.12,0-.23a6.59,6.59,0,0,0,2.06,3c-3.39.61-5.08.95-8.45,1.73.35-.56.52-.84.88-1.39l-1-4.38a2.47,2.47,0,0,0-1.06.78l-.16-.18a2.43,2.43,0,0,1,1.16-.85l-.1-.47-.19,0a1.94,1.94,0,0,0-1.28,1.06c0-1.1.42-1.75,1.28-1.94-.38-1.68-.56-2.51-.94-4.19l-1.49-.9C62.91,132.57,64.64,132.21,68.11,131.58ZM71.67,144c-.1.38-.14.57-.24,1-3.29.58-4.93.91-8.2,1.65a2.15,2.15,0,0,0-.18-.24c3.28-.75,4.93-1.08,8.24-1.66.06-.27.08-.41.14-.67a8.56,8.56,0,0,1-2.05-2.53l.27.07a8.77,8.77,0,0,0,1.87,2.28Zm-4.79-8,.84,4.37-.22-.1-.85-4.36Zm1.75-3.73,0,.1a11.9,11.9,0,0,0-.82,3l-.17-.18a11.56,11.56,0,0,1,.88-3.07Z"/><path class="cls-1" d="M70.11,131.23c1.46-.25,2.2-.37,3.66-.59a5.34,5.34,0,0,1,3.44.33,3.33,3.33,0,0,1,1.59,2.58,3.68,3.68,0,0,1-.24,1.92,2.77,2.77,0,0,1-1.16,1.3,7.77,7.77,0,0,1-2.61.73l-1,.14c.29,1.93.44,2.89.74,4.81l1.09,1c-1.41.22-2.11.33-3.52.57.34-.54.51-.8.86-1.34l-.65-4h-.14a2.2,2.2,0,0,0-1,.49l-.1-.16a1.72,1.72,0,0,1,.87-.54l.28,0h.06l-.08-.49H72a1.81,1.81,0,0,0-1.26.74l-.1-.13A1.62,1.62,0,0,1,72,137.14l.13,0-.8-4.86Zm8-.09a2.06,2.06,0,0,1,.93,1,4.61,4.61,0,0,1,.5,1.67,3.64,3.64,0,0,1-1,3.28,6.33,6.33,0,0,1-3.31,1.18c-.27,0-.49.07-.68.08.25,1.65.37,2.47.62,4.11l1.47,1.67c-1.52.22-2.28.34-3.79.59l-.25-.23c1.43-.24,2.14-.36,3.57-.56L75,142.56c-.27-1.79-.41-2.69-.68-4.48.46,0,1-.09,1.46-.17a4.43,4.43,0,0,0,2.89-1.31,3.68,3.68,0,0,0,.65-2.91,4.37,4.37,0,0,0-.35-1.33A5.6,5.6,0,0,0,78.08,131.14Zm-5.15.68c.3,2,.46,3,.77,5l.1,0,.21,0,.1,0c-.27-1.78-.41-2.66-.68-4.44l.89-.13a3.41,3.41,0,0,1,1.5,0,1.71,1.71,0,0,1,.85.83,1.64,1.64,0,0,0-.85-.61,3,3,0,0,0-1.29,0l-.84.13c.26,1.68.38,2.51.64,4.19a3.76,3.76,0,0,0,2.21-.91,2.18,2.18,0,0,0,.5-1.91A2.71,2.71,0,0,0,76.1,132a3,3,0,0,0-2.25-.32Z"/><path class="cls-1" d="M87.16,129.15l-.76,1.25c.67,1.71,1,2.56,1.65,4.27l.3-.24c-.58-1.55-.88-2.32-1.48-3.86l.77-1.29.23.1-.75,1.23c.57,1.46.85,2.19,1.4,3.66l.11-.12.24-.3a2.93,2.93,0,0,0,.29-.36,8.23,8.23,0,0,0,.76,2h-.33a1.68,1.68,0,0,0-1.08.37c.71,1.93,1,2.9,1.73,4.83l1.22,1.1c-1.54.09-2.32.14-3.86.26l1-1.24c-.42-1.15-.64-1.73-1.08-2.87a11.18,11.18,0,0,0-1.14,2.22l-.18,0a12.11,12.11,0,0,1,1.19-2.3l0-.1c-.07-.18-.11-.26-.18-.43a8.45,8.45,0,0,0-1.35,2.43c-.06-.12-.1-.17-.16-.28-.32-.53-.72-1.13-1.21-1.8l-.09-.11a8.85,8.85,0,0,0-.34,2.83,3.41,3.41,0,0,0,.27,1,11.55,11.55,0,0,0,.93,1.39s.11.14.19.26c-1.64.15-2.46.23-4.1.42l-.18-.25c1.55-.18,2.32-.26,3.87-.4l-.15-.2a8.23,8.23,0,0,1-.78-1.18,3.3,3.3,0,0,1-.26-1,10.75,10.75,0,0,1,.36-3.11l-.4-.43c0,.22-.1.55-.16,1s-.1.63-.16,1.05a5.27,5.27,0,0,0-.07,1.38,2.24,2.24,0,0,0,.24.91,4.85,4.85,0,0,0,.71.95l.15.18c-1.52.15-2.28.23-3.81.41a5.42,5.42,0,0,0,1.51-2.19,19.2,19.2,0,0,0,.89-4l0-.14a1.87,1.87,0,0,0-1.27-.43,8.58,8.58,0,0,0,.5-1.78l.15.15.4.38a5.56,5.56,0,0,0,.49.41l.1-.46-.11-.09c-.29-.27-.54-.48-.74-.64l-.08-.06.11-.24a7.31,7.31,0,0,1,.89.73c.29-1.54.44-2.31.75-3.84l-1-1.06C84.88,129.33,85.64,129.27,87.16,129.15Zm-2.22,2.25c-.37,1.73-.55,2.59-.9,4.32a12.52,12.52,0,0,1,1.18,1.45l.42.61a1,1,0,0,0,.09.12.4.4,0,0,0,.06-.11l.1-.18.07-.14a9.81,9.81,0,0,0-1.45-1.84c.28-1.39.42-2.09.72-3.48C85.11,131.85,85.05,131.7,84.94,131.4Zm.46,1.13c-.25,1.19-.38,1.79-.62,3l.09.12.36.43a8.91,8.91,0,0,1,.76,1.06l.09.15a9,9,0,0,1,.72-1.14C86.25,134.69,86,134,85.4,132.53Zm4.49,1.4a14,14,0,0,0,1,2.43l-.2,0-.64,0c-.29,0-.51,0-.64,0l-.15,0c.64,1.75,1,2.62,1.57,4.37.73.75,1.1,1.13,1.81,1.89-1.76.08-2.64.13-4.4.26l-.17-.26c1.62-.12,2.43-.17,4-.25-.58-.61-.88-.91-1.47-1.52-.66-1.86-1-2.79-1.68-4.64a1.83,1.83,0,0,1,.61-.13,5.21,5.21,0,0,1,1,0l-.1-.21a10.35,10.35,0,0,1-.82-2.1Z"/><path class="cls-1" d="M92.36,128.84c1.54-.07,2.31-.09,3.85-.13l-1.1,1.36c.07,2.42.11,3.64.18,6.07l.42-.65-.15-5.36.89-1.12.13.22-.82,1c0,2,.08,3,.13,4.91,1-1.51,1.43-2.27,2.42-3.77a2.75,2.75,0,0,0,.53-1.45,1.09,1.09,0,0,0-.32-.73,1.53,1.53,0,0,0-.77-.44v-.1c1.74,0,2.61,0,4.35,0v.1c-1,.27-2,1.22-3,2.84-.45.66-.67,1-1.1,1.67,1.23,2.86,1.82,4.3,3,7.19l1.29,1.1c-1.59,0-2.39,0-4,0l1-1c-.78-2-1.19-3-2-5l-1.24,2,.08,2.88c.52.75.78,1.13,1.29,1.89-1.56,0-2.34.06-3.91.12l-.21-.26c1.46-.07,2.19-.09,3.66-.12-.4-.61-.6-.91-1-1.51l-.09-3.12c.52-.88.78-1.31,1.32-2.19-.07-.17-.11-.26-.19-.43-.63,1-1,1.5-1.57,2.51l.1,3.13c.39.42.58.64,1,1.07-1.4,0-2.1.06-3.51.12l1-1.22c-.17-4.21-.26-6.31-.42-10.52Zm10.14.74a3.52,3.52,0,0,0-2.41,1.73c-.57.78-.85,1.17-1.4,2,1.16,2.87,1.72,4.3,2.8,7.19.87.77,1.3,1.16,2.15,1.94-1.94,0-2.91,0-4.85,0l-.22-.27c1.77,0,2.65,0,4.42,0-.64-.59-1-.89-1.62-1.47-1.11-3-1.7-4.44-2.91-7.38.59-.85.89-1.27,1.49-2.12a3.73,3.73,0,0,1,2.46-1.79Z"/><path class="cls-1" d="M107.26,134.74l.3,1.2c-1.58-.07-2.38-.09-4-.11l-.32-1.2C104.88,134.66,105.67,134.68,107.26,134.74Zm1.07,1.95c-1.69-.07-2.54-.1-4.23-.13l-.17-.29c1.65,0,2.47.06,4.11.13-.12-.56-.19-.84-.31-1.39l.24.24C108.12,135.83,108.19,136.11,108.33,136.69Z"/><path class="cls-1" d="M109.16,130.22a6.54,6.54,0,0,1,4.47-1.32,4.17,4.17,0,0,1,2.81,1.2,3.15,3.15,0,0,1,.88,2.59,2.7,2.7,0,0,1-2.13,2.57v.11l.44.2a2.44,2.44,0,0,0,1.49-.94,3.61,3.61,0,0,0,.69-1.88,3.68,3.68,0,0,0-.72-2.61v-.06l.08.1a3.4,3.4,0,0,1,.82,2.69,3.15,3.15,0,0,1-2.09,2.88,3,3,0,0,1,1.09,1.39,3.89,3.89,0,0,1,.25,1.91,3.4,3.4,0,0,1-1.06,2.31,2.93,2.93,0,0,1-2.28.71c-2.19-.17-3.28-.24-5.47-.34l1.11-1.14.23-4.34a4.87,4.87,0,0,0-1.1.07l0-.3a8,8,0,0,1,1.16,0l0-.53h-.2a8.78,8.78,0,0,0-1.12,0c.16-.38.24-.57.39-.95l.13,0a3.77,3.77,0,0,0,.47.05,2.37,2.37,0,0,1,.37,0l.2-3.77Zm8.11,6.5a3.39,3.39,0,0,1,.59,2.6,4.31,4.31,0,0,1-1.19,2.72,3.21,3.21,0,0,1-2.69.86c-2.07-.16-3.11-.23-5.18-.33l-.12-.28c1.93.09,2.89.15,4.81.3a4.68,4.68,0,0,0,2.3-.23,3.59,3.59,0,0,0,1.87-3.13,4.09,4.09,0,0,0-.5-2.43Zm-5.55-6.51c-.11,1.81-.16,2.71-.27,4.52h.12l.14,0h.14c.1-1.65.15-2.47.26-4.11a2.8,2.8,0,0,1,1.39-.31,2,2,0,0,1,1.19.43,2.54,2.54,0,0,1,.66,1.23l-.21-.18a1.91,1.91,0,0,0-1.66-1.27,1.71,1.71,0,0,0-1.17.37l-.25,3.85.34,0a3.5,3.5,0,0,0,2.31-.47,2.42,2.42,0,0,0,.91-1.89,2.68,2.68,0,0,0-.47-1.91,2.16,2.16,0,0,0-1.62-.83A2.93,2.93,0,0,0,111.72,130.21Zm-.32,5.34c-.14,2.22-.2,3.32-.34,5.53l.38,0c.13-2,.19-3,.32-4.93q.55,0,.81,0a4.29,4.29,0,0,1,1.87.45,2.14,2.14,0,0,1,.84,1.26h-.1a2.08,2.08,0,0,0-.89-1,4.07,4.07,0,0,0-1.69-.39l-.65,0-.3,4.68.25,0,1.12,0c1.45,0,2.25-.87,2.39-2.57a2.66,2.66,0,0,0-.54-2.24,4.58,4.58,0,0,0-2.72-.79Z"/><path class="cls-1" d="M124.51,130.08a3.58,3.58,0,0,1,2.9,2.28,8.84,8.84,0,0,1,.42,5.06,8.57,8.57,0,0,1-1.82,4.44,3.43,3.43,0,0,1-3.18,1.31,3.54,3.54,0,0,1-2.45-1.53,7.7,7.7,0,0,1-1.11-5.52,8.25,8.25,0,0,1,1.73-4.66A3.75,3.75,0,0,1,124.51,130.08Zm-.11.86c-1.84-.24-3,1.63-3.45,5.59-.42,3.65.21,5.57,1.91,5.8a2,2,0,0,0,2-1.21,11.31,11.31,0,0,0,1.24-4.14,10.91,10.91,0,0,0,0-4.49A2.08,2.08,0,0,0,124.4,130.94Zm2.65,0a4.54,4.54,0,0,1,1.47,2.62,10.15,10.15,0,0,1,0,3.94,9.8,9.8,0,0,1-2.07,5A3.86,3.86,0,0,1,123,144a3.4,3.4,0,0,1-2.27-1.45v-.05a3.35,3.35,0,0,0,2.25,1.21,3.77,3.77,0,0,0,3.4-1.44,8.83,8.83,0,0,0,2-4.6,11.33,11.33,0,0,0,0-3.9,5,5,0,0,0-1.32-2.69Zm-1.12,1.72-.12-.12a2.67,2.67,0,0,0-1.36-.72c-1.42-.19-2.34,1.45-2.75,4.89-.31,2.51-.08,4.23.64,5.16l-.08.09a4,4,0,0,1-.86-2,11.62,11.62,0,0,1,0-3.16c.44-3.69,1.45-5.45,3-5.24A1.68,1.68,0,0,1,125.93,132.67Z"/><path class="cls-1" d="M130.35,131.08c1.56.25,2.34.39,3.89.68l-1.39,1.15L131,143.48H131l.27.08.07,0c.76-4.21,1.15-6.31,1.91-10.51l1.08-.91.07.24-1,.83c-.76,4.15-1.14,6.23-1.91,10.38a6.13,6.13,0,0,0,.65.16,2.4,2.4,0,0,0,2-.34,4.41,4.41,0,0,0,1.3-2.12,12.18,12.18,0,0,0,.71,4c-3.15-.68-4.73-1-7.89-1.49l1.23-.95c.71-4.13,1.06-6.2,1.77-10.33Zm6.55,14.3-.53.81c-3.13-.68-4.7-1-7.85-1.51l-.14-.29c3.2.53,4.79.83,8,1.51l.35-.57a13.22,13.22,0,0,1-.71-3.24V142l.22.17,0,.18a17.34,17.34,0,0,0,.64,2.94Z"/><path class="cls-1" d="M146.94,134.6l-1.14.94c.09,1.83.13,2.74.19,4.57l.37-.13c-.05-1.65-.08-2.48-.16-4.13l1.16-1,.18.16-1.11.93c.07,1.57.1,2.35.15,3.92l.14-.08.33-.2a2.67,2.67,0,0,0,.38-.25,8.39,8.39,0,0,0,.09,2.15,2,2,0,0,0-.32-.11,1.63,1.63,0,0,0-1.16,0c.05,2,.07,3.08.09,5.14.33.57.49.86.81,1.43-1.51-.42-2.26-.63-3.77-1l1.33-.86c0-1.22-.05-1.83-.1-3.06a11.21,11.21,0,0,0-1.81,1.73l-.16-.1a12.29,12.29,0,0,1,1.89-1.79l.08-.08c0-.19,0-.28,0-.47a8.12,8.12,0,0,0-2.08,1.86c0-.13,0-.19-.06-.32-.13-.6-.32-1.3-.57-2.09l0-.14a8.92,8.92,0,0,0-1.24,2.58,3.2,3.2,0,0,0-.08,1.08,10.46,10.46,0,0,0,.43,1.61c0,.06.05.17.1.31-1.61-.39-2.42-.58-4-.93,0-.12-.05-.18-.09-.3,1.53.33,2.29.51,3.81.87l-.07-.23a6.48,6.48,0,0,1-.36-1.37,3,3,0,0,1,.08-1.06,10.78,10.78,0,0,1,1.35-2.83c-.1-.21-.14-.31-.24-.53-.11.2-.27.48-.47.86s-.29.57-.49.94a6.24,6.24,0,0,0-.52,1.28,2.68,2.68,0,0,0-.06,1,5,5,0,0,0,.36,1.13,1.64,1.64,0,0,1,.1.22c-1.5-.36-2.26-.53-3.76-.86a5.36,5.36,0,0,0,2.14-1.57,19.44,19.44,0,0,0,2.14-3.49l.07-.13a1.9,1.9,0,0,0-1.07-.81,8,8,0,0,0,1.05-1.53,2.08,2.08,0,0,0,.1.19c.1.2.15.3.26.49a3.06,3.06,0,0,0,.32.54l.25-.39-.08-.12c-.19-.35-.35-.63-.49-.85l-.06-.09.18-.18a7.15,7.15,0,0,1,.62,1c.77-1.36,1.16-2,2-3.4l-.59-1.32C144.71,134,145.45,134.22,146.94,134.6ZM144.09,136c-.91,1.51-1.36,2.27-2.25,3.79a13.55,13.55,0,0,1,.65,1.75l.2.72a1,1,0,0,1,0,.14.39.39,0,0,0,.11-.09l.15-.13a1.11,1.11,0,0,1,.11-.11,9.35,9.35,0,0,0-.79-2.21c.72-1.23,1.08-1.84,1.82-3.06C144.11,136.49,144.11,136.33,144.09,136Zm.08,1.22c-.63,1-.95,1.56-1.57,2.61l.05.14c.09.21.13.32.21.53a10,10,0,0,1,.38,1.25l0,.17a8.27,8.27,0,0,1,1.05-.85C144.27,139.54,144.24,138.77,144.17,137.23ZM148,140a12.37,12.37,0,0,0,.18,2.63l-.18-.08-.61-.24a4.89,4.89,0,0,0-.6-.22l-.16,0c.05,1.86.07,2.78.09,4.64.45.95.68,1.42,1.12,2.38-1.72-.5-2.57-.74-4.3-1.19,0-.12,0-.18-.07-.3,1.58.41,2.37.63,3.95,1.08-.36-.76-.54-1.15-.91-1.91,0-2,0-3-.1-4.94a2,2,0,0,1,.62.07,5.17,5.17,0,0,1,.9.35l0-.24a10.51,10.51,0,0,1-.1-2.25Z"/><polygon class="cls-1" points="172.99 119.44 96.73 116.7 19.18 119.44 22.56 96.08 95.95 90.77 168.9 95.92 172.99 119.44"/><path class="cls-12" d="M4.1,132.65q.53-2.81,1-5.61,1.47-.36,2.94-.69,2.34-13.15,4.67-26.29-1.39.31-2.79.66c.35-1.87.69-3.75,1-5.62q6.65-1.59,13.34-2.94c3.86-.77,6.78-.49,8.79.78s2.82,3.51,2.41,6.67c-.5,3.93-2.68,6.79-6.56,8.68,3.95,1,5.7,3.55,5.17,7.7a13.1,13.1,0,0,1-4.92,8.68,25.34,25.34,0,0,1-11.36,4.94Q11,131,4.1,132.65Zm18-34.87q-.82,5.18-1.64,10.35c2.09-.42,3.48-1.07,4.16-2a8.62,8.62,0,0,0,1.41-4,7.87,7.87,0,0,0,0-3.34,1.66,1.66,0,0,0-1.24-1.26A7,7,0,0,0,22.05,97.78ZM19.6,113.25l-1.74,11a14.52,14.52,0,0,0,3.21-1,4.33,4.33,0,0,0,1.88-1.8,10.42,10.42,0,0,0,1.11-3.72,7.51,7.51,0,0,0-.07-3.52A1.79,1.79,0,0,0,22.57,113,9.32,9.32,0,0,0,19.6,113.25Z"/><path class="cls-12" d="M32.56,126.92q.36-2.78.71-5.55l2.77-.44q3.84-13.35,7.43-26.64L41,94.66l.66-5.54q10.72-1.62,21.52-2.6c-.13,1.84-.27,3.67-.4,5.51l-2.68.25q1.26,12.7,2.76,25.42l2.61-.22c-.11,1.83-.23,3.67-.34,5.51q-7.21.57-14.42,1.4l.51-5.52,2.61-.29q-.21-3.39-.39-6.77-3.37.38-6.73.81-.82,3.51-1.67,7c.85-.12,1.71-.23,2.56-.33-.18,1.84-.37,3.68-.55,5.52Q39.77,125.75,32.56,126.92Zm15.25-19c1.75-.23,3.5-.44,5.25-.64-.24-5-.46-10.07-.65-15.12l-1.07.13Q49.61,100.12,47.81,107.93Z"/><path class="cls-12" d="M65.81,122.93l.33-5.51,2.62-.19q.72-12.9,1.45-25.8l-2.48.18.34-5.51c3.75-.28,7.49-.52,11.24-.69a163.19,163.19,0,0,1,7.44,21.7h.52c-.17-5.4-.24-8.49-.22-9.3,0-2.39.09-4.78.14-7.18l-2.32.07c0-1.83.09-3.67.14-5.5,3.42-.1,6.85-.16,10.27-.17v5.5H93.12l-.21,31.55q-3.91,0-7.84.14-1.53-3.63-3-7.26-2-4.72-3.46-8.92T75.87,97.2l-.53,0c.16,4.22.16,8.37,0,12.42-.11,2.4-.21,4.79-.32,7.19l2.27-.12-.21,5.5Q71.43,122.49,65.81,122.93Z"/><path class="cls-12" d="M97,121.76c0-1.83,0-3.66,0-5.49l3,0q-.09-12.89-.2-25.76H97c0-1.83,0-3.66,0-5.5q6.78,0,13.57.29a13.22,13.22,0,0,1,10.24,5.51c2.74,3.49,4.32,8.09,4.67,13.75.34,5.49-.61,9.82-2.93,13s-5.95,4.67-10.82,4.48S101.89,121.77,97,121.76Zm12.22-31q.38,12.89.73,25.76a5,5,0,0,0,3.29-.82c.77-.61,1.32-1.83,1.64-3.68a43.32,43.32,0,0,0,.26-8.3,40,40,0,0,0-1-8.34,6.94,6.94,0,0,0-1.93-3.67A5,5,0,0,0,109.22,90.75Z"/><path class="cls-12" d="M125.87,122.88l-.33-5.5,2.79.22q1.41-12.72,2.56-25.44l-2.53-.24c-.13-1.83-.26-3.67-.38-5.5q10.78.94,21.52,2.53c.22,1.84.43,3.69.65,5.54l-2.67-.39q3.69,13.31,7.63,26.65l2.59.41c.23,1.85.47,3.7.7,5.55q-7.17-1.15-14.36-2c-.18-1.84-.35-3.68-.53-5.52l2.6.32q-.86-3.51-1.69-7c-2.24-.29-4.49-.55-6.73-.8q-.18,3.39-.37,6.78l2.56.28c.17,1.84.33,3.68.5,5.52Q133.14,123.43,125.87,122.88ZM138,107.15c1.75.2,3.49.4,5.24.62q-1.8-7.81-3.55-15.62L138.61,92Q138.32,99.59,138,107.15Z"/><path class="cls-12" d="M159.36,126.86q-.36-2.77-.71-5.55l2.54.42-3.45-26-2.4-.4c-.24-1.85-.47-3.7-.71-5.55q7.22,1.17,14.38,2.64a17.44,17.44,0,0,1,13.51,13.55,7.85,7.85,0,0,1-.11,4.11,5,5,0,0,1-2.44,2.53q2.7,7,5.49,14.07l1.68.4q.53,2.8,1,5.61-4.54-1.1-9.11-2.07-3.33-8.63-6.53-17.21l-3.14-.63q.83,5.4,1.64,10.79l2.52.5c.29,1.86.59,3.72.88,5.58Q166.91,128.09,159.36,126.86ZM167,97.13q.78,5.13,1.55,10.24c2.32.46,3.72.35,4.2-.35s.57-2,.27-3.86a9.06,9.06,0,0,0-1.45-3.86C170.88,98.32,169.36,97.59,167,97.13Z"/><path class="cls-13" d="M4.1,132.65q.53-2.81,1-5.61,1.47-.36,2.94-.69,2.34-13.15,4.67-26.29-1.39.31-2.79.66c.35-1.87.69-3.75,1-5.62q6.65-1.59,13.34-2.94c3.86-.77,6.78-.49,8.79.78s2.82,3.51,2.41,6.67c-.5,3.93-2.68,6.79-6.56,8.68,3.95,1,5.7,3.55,5.17,7.7a13.1,13.1,0,0,1-4.92,8.68,25.34,25.34,0,0,1-11.36,4.94Q11,131,4.1,132.65Zm18-34.87q-.82,5.18-1.64,10.35c2.09-.42,3.48-1.07,4.16-2a8.62,8.62,0,0,0,1.41-4,7.87,7.87,0,0,0,0-3.34,1.66,1.66,0,0,0-1.24-1.26A7,7,0,0,0,22.05,97.78ZM19.6,113.25l-1.74,11a14.52,14.52,0,0,0,3.21-1,4.33,4.33,0,0,0,1.88-1.8,10.42,10.42,0,0,0,1.11-3.72,7.51,7.51,0,0,0-.07-3.52A1.79,1.79,0,0,0,22.57,113,9.32,9.32,0,0,0,19.6,113.25Z"/><path class="cls-13" d="M32.56,126.92q.36-2.78.71-5.55l2.77-.44q3.84-13.35,7.43-26.64L41,94.66l.66-5.54q10.72-1.62,21.52-2.6c-.13,1.84-.27,3.67-.4,5.51l-2.68.25q1.26,12.7,2.76,25.42l2.61-.22c-.11,1.83-.23,3.67-.34,5.51q-7.21.57-14.42,1.4l.51-5.52,2.61-.29q-.21-3.39-.39-6.77-3.37.38-6.73.81-.82,3.51-1.67,7c.85-.12,1.71-.23,2.56-.33-.18,1.84-.37,3.68-.55,5.52Q39.77,125.75,32.56,126.92Zm15.25-19c1.75-.23,3.5-.44,5.25-.64-.24-5-.46-10.07-.65-15.12l-1.07.13Q49.61,100.12,47.81,107.93Z"/><path class="cls-13" d="M65.81,122.93l.33-5.51,2.62-.19q.72-12.9,1.45-25.8l-2.48.18.34-5.51c3.75-.28,7.49-.52,11.24-.69a163.19,163.19,0,0,1,7.44,21.7h.52c-.17-5.4-.24-8.49-.22-9.3,0-2.39.09-4.78.14-7.18l-2.32.07c0-1.83.09-3.67.14-5.5,3.42-.1,6.85-.16,10.27-.17v5.5H93.12l-.21,31.55q-3.91,0-7.84.14-1.53-3.63-3-7.26-2-4.72-3.46-8.92T75.87,97.2l-.53,0c.16,4.22.16,8.37,0,12.42-.11,2.4-.21,4.79-.32,7.19l2.27-.12-.21,5.5Q71.43,122.49,65.81,122.93Z"/><path class="cls-13" d="M97,121.76c0-1.83,0-3.66,0-5.49l3,0q-.09-12.89-.2-25.76H97c0-1.83,0-3.66,0-5.5q6.78,0,13.57.29a13.22,13.22,0,0,1,10.24,5.51c2.74,3.49,4.32,8.09,4.67,13.75.34,5.49-.61,9.82-2.93,13s-5.95,4.67-10.82,4.48S101.89,121.77,97,121.76Zm12.22-31q.38,12.89.73,25.76a5,5,0,0,0,3.29-.82c.77-.61,1.32-1.83,1.64-3.68a43.32,43.32,0,0,0,.26-8.3,40,40,0,0,0-1-8.34,6.94,6.94,0,0,0-1.93-3.67A5,5,0,0,0,109.22,90.75Z"/><path class="cls-13" d="M125.87,122.88l-.33-5.5,2.79.22q1.41-12.72,2.56-25.44l-2.53-.24c-.13-1.83-.26-3.67-.38-5.5q10.78.94,21.52,2.53c.22,1.84.43,3.69.65,5.54l-2.67-.39q3.69,13.31,7.63,26.65l2.59.41c.23,1.85.47,3.7.7,5.55q-7.17-1.15-14.36-2c-.18-1.84-.35-3.68-.53-5.52l2.6.32q-.86-3.51-1.69-7c-2.24-.29-4.49-.55-6.73-.8q-.18,3.39-.37,6.78l2.56.28c.17,1.84.33,3.68.5,5.52Q133.14,123.43,125.87,122.88ZM138,107.15c1.75.2,3.49.4,5.24.62q-1.8-7.81-3.55-15.62L138.61,92Q138.32,99.59,138,107.15Z"/><path class="cls-13" d="M159.36,126.86q-.36-2.77-.71-5.55l2.54.42-3.45-26-2.4-.4c-.24-1.85-.47-3.7-.71-5.55q7.22,1.17,14.38,2.64a17.44,17.44,0,0,1,13.51,13.55,7.85,7.85,0,0,1-.11,4.11,5,5,0,0,1-2.44,2.53q2.7,7,5.49,14.07l1.68.4q.53,2.8,1,5.61-4.54-1.1-9.11-2.07-3.33-8.63-6.53-17.21l-3.14-.63q.83,5.4,1.64,10.79l2.52.5c.29,1.86.59,3.72.88,5.58Q166.91,128.09,159.36,126.86ZM167,97.13q.78,5.13,1.55,10.24c2.32.46,3.72.35,4.2-.35s.57-2,.27-3.86a9.06,9.06,0,0,0-1.45-3.86C170.88,98.32,169.36,97.59,167,97.13Z"/><path class="cls-9" d="M4.1,132.65q.53-2.81,1-5.61,1.47-.36,2.94-.69,2.34-13.15,4.67-26.29-1.39.31-2.79.66c.35-1.87.69-3.75,1-5.62q6.65-1.59,13.34-2.94c3.86-.77,6.78-.49,8.79.78s2.82,3.51,2.41,6.67c-.5,3.93-2.68,6.79-6.56,8.68,3.95,1,5.7,3.55,5.17,7.7a13.1,13.1,0,0,1-4.92,8.68,25.34,25.34,0,0,1-11.36,4.94Q11,131,4.1,132.65Zm18-34.87q-.82,5.18-1.64,10.35c2.09-.42,3.48-1.07,4.16-2a8.62,8.62,0,0,0,1.41-4,7.87,7.87,0,0,0,0-3.34,1.66,1.66,0,0,0-1.24-1.26A7,7,0,0,0,22.05,97.78ZM19.6,113.25l-1.74,11a14.52,14.52,0,0,0,3.21-1,4.33,4.33,0,0,0,1.88-1.8,10.42,10.42,0,0,0,1.11-3.72,7.51,7.51,0,0,0-.07-3.52A1.79,1.79,0,0,0,22.57,113,9.32,9.32,0,0,0,19.6,113.25Z"/><path class="cls-9" d="M32.56,126.92q.36-2.78.71-5.55l2.77-.44q3.84-13.35,7.43-26.64L41,94.66l.66-5.54q10.72-1.62,21.52-2.6c-.13,1.84-.27,3.67-.4,5.51l-2.68.25q1.26,12.7,2.76,25.42l2.61-.22c-.11,1.83-.23,3.67-.34,5.51q-7.21.57-14.42,1.4l.51-5.52,2.61-.29q-.21-3.39-.39-6.77-3.37.38-6.73.81-.82,3.51-1.67,7c.85-.12,1.71-.23,2.56-.33-.18,1.84-.37,3.68-.55,5.52Q39.77,125.75,32.56,126.92Zm15.25-19c1.75-.23,3.5-.44,5.25-.64-.24-5-.46-10.07-.65-15.12l-1.07.13Q49.61,100.12,47.81,107.93Z"/><path class="cls-9" d="M65.81,122.93l.33-5.51,2.62-.19q.72-12.9,1.45-25.8l-2.48.18.34-5.51c3.75-.28,7.49-.52,11.24-.69a163.19,163.19,0,0,1,7.44,21.7h.52c-.17-5.4-.24-8.49-.22-9.3,0-2.39.09-4.78.14-7.18l-2.32.07c0-1.83.09-3.67.14-5.5,3.42-.1,6.85-.16,10.27-.17v5.5H93.12l-.21,31.55q-3.91,0-7.84.14-1.53-3.63-3-7.26-2-4.72-3.46-8.92T75.87,97.2l-.53,0c.16,4.22.16,8.37,0,12.42-.11,2.4-.21,4.79-.32,7.19l2.27-.12-.21,5.5Q71.43,122.49,65.81,122.93Z"/><path class="cls-9" d="M97,121.76c0-1.83,0-3.66,0-5.49l3,0q-.09-12.89-.2-25.76H97c0-1.83,0-3.66,0-5.5q6.78,0,13.57.29a13.22,13.22,0,0,1,10.24,5.51c2.74,3.49,4.32,8.09,4.67,13.75.34,5.49-.61,9.82-2.93,13s-5.95,4.67-10.82,4.48S101.89,121.77,97,121.76Zm12.22-31q.38,12.89.73,25.76a5,5,0,0,0,3.29-.82c.77-.61,1.32-1.83,1.64-3.68a43.32,43.32,0,0,0,.26-8.3,40,40,0,0,0-1-8.34,6.94,6.94,0,0,0-1.93-3.67A5,5,0,0,0,109.22,90.75Z"/><path class="cls-9" d="M125.87,122.88l-.33-5.5,2.79.22q1.41-12.72,2.56-25.44l-2.53-.24c-.13-1.83-.26-3.67-.38-5.5q10.78.94,21.52,2.53c.22,1.84.43,3.69.65,5.54l-2.67-.39q3.69,13.31,7.63,26.65l2.59.41c.23,1.85.47,3.7.7,5.55q-7.17-1.15-14.36-2c-.18-1.84-.35-3.68-.53-5.52l2.6.32q-.86-3.51-1.69-7c-2.24-.29-4.49-.55-6.73-.8q-.18,3.39-.37,6.78l2.56.28c.17,1.84.33,3.68.5,5.52Q133.14,123.43,125.87,122.88ZM138,107.15c1.75.2,3.49.4,5.24.62q-1.8-7.81-3.55-15.62L138.61,92Q138.32,99.59,138,107.15Z"/><path class="cls-9" d="M159.36,126.86q-.36-2.77-.71-5.55l2.54.42-3.45-26-2.4-.4c-.24-1.85-.47-3.7-.71-5.55q7.22,1.17,14.38,2.64a17.44,17.44,0,0,1,13.51,13.55,7.85,7.85,0,0,1-.11,4.11,5,5,0,0,1-2.44,2.53q2.7,7,5.49,14.07l1.68.4q.53,2.8,1,5.61-4.54-1.1-9.11-2.07-3.33-8.63-6.53-17.21l-3.14-.63q.83,5.4,1.64,10.79l2.52.5c.29,1.86.59,3.72.88,5.58Q166.91,128.09,159.36,126.86ZM167,97.13q.78,5.13,1.55,10.24c2.32.46,3.72.35,4.2-.35s.57-2,.27-3.86a9.06,9.06,0,0,0-1.45-3.86C170.88,98.32,169.36,97.59,167,97.13Z"/></g></g></svg>