<?xml version="1.0" standalone="no"?>
<!DOCTYPE svg PUBLIC "-//W3C//DTD SVG 20010904//EN"
 "http://www.w3.org/TR/2001/REC-SVG-20010904/DTD/svg10.dtd">
<svg version="1.0" xmlns="http://www.w3.org/2000/svg"
 width="145.000000pt" height="145.000000pt" viewBox="0 0 145.000000 145.000000"
 preserveAspectRatio="xMidYMid meet">
<metadata>
Created by potrace 1.11, written by Peter Selinger 2001-2013
</metadata>
<g transform="translate(0.000000,145.000000) scale(0.100000,-0.100000)"
fill="#000000" stroke="none">
<path d="M620 1360 c-30 -11 -73 -33 -95 -49 -22 -15 -65 -34 -95 -41 -81 -18
-194 -51 -202 -59 -4 -4 -3 -24 3 -46 15 -52 -1 -103 -52 -167 -27 -34 -39
-61 -40 -84 -1 -19 -2 -44 -3 -56 -1 -19 9 -102 17 -140 1 -6 -5 -12 -13 -13
-8 -2 -28 -6 -44 -9 -16 -3 -31 -8 -35 -11 -3 -4 -6 -41 -7 -83 -1 -90 -11
-140 -30 -160 -13 -12 -15 -21 -17 -69 -1 -11 5 -17 13 -15 8 2 50 11 92 19
l77 16 50 -39 51 -39 -6 -77 -6 -76 74 19 c40 11 82 21 93 24 11 2 34 7 50 10
25 5 47 -4 140 -62 60 -37 112 -67 116 -66 3 1 54 32 113 69 97 60 110 65 144
59 20 -4 37 -6 37 -6 0 1 24 -6 54 -15 30 -9 62 -17 70 -19 9 -2 24 -6 34 -10
19 -8 19 -4 1 111 -4 27 1 36 42 69 l47 39 74 -16 74 -15 -6 41 c-4 22 -13 48
-20 56 -20 24 -33 73 -25 95 4 11 5 31 3 45 -5 31 -41 90 -54 90 -6 0 -8 9 -4
19 14 44 17 70 20 141 2 90 -6 124 -39 156 -51 52 -73 143 -47 192 9 17 5 21
-32 35 -23 9 -82 26 -132 38 -54 13 -112 35 -146 56 -108 66 -231 81 -339 43z"/>
</g>
</svg>
