<?xml version="1.0" standalone="no"?>
<!DOCTYPE svg PUBLIC "-//W3C//DTD SVG 20010904//EN"
 "http://www.w3.org/TR/2001/REC-SVG-20010904/DTD/svg10.dtd">
<svg version="1.0" xmlns="http://www.w3.org/2000/svg"
 width="233.000000pt" height="233.000000pt" viewBox="0 0 233.000000 233.000000"
 preserveAspectRatio="xMidYMid meet">
<metadata>
Created by potrace 1.11, written by Peter Selinger 2001-2013
</metadata>
<g transform="translate(0.000000,233.000000) scale(0.100000,-0.100000)"
fill="#000000" stroke="none">
<path d="M1023 2281 c-128 -32 -280 -124 -298 -181 -8 -26 -41 -26 -120 -1
-80 26 -224 85 -282 116 -26 13 -49 23 -51 21 -2 -3 15 -67 37 -143 57 -192
98 -270 193 -367 42 -43 78 -87 80 -99 3 -18 -20 -31 -169 -96 -152 -67 -173
-79 -178 -103 -5 -19 -14 -28 -36 -33 -33 -7 -44 -24 -53 -75 -3 -19 -22 -120
-41 -225 -20 -104 -38 -208 -41 -229 -3 -22 -6 -43 -7 -47 -1 -3 29 -38 68
-75 l70 -69 -98 -15 -97 -15 25 -37 c67 -99 80 -190 46 -321 l-18 -68 46 6
c25 4 69 10 96 15 28 5 70 12 95 15 25 3 56 8 70 10 14 3 39 7 55 9 148 21
175 28 173 43 -2 9 5 17 17 19 98 14 93 15 148 -38 72 -70 201 -175 262 -212
67 -42 100 -56 135 -56 61 0 224 104 389 250 50 44 83 66 96 64 11 -2 35 -4
53 -6 29 -2 36 -9 33 -30 -1 -8 36 -16 114 -23 33 -3 76 -8 95 -10 19 -3 62
-7 95 -10 67 -7 98 -10 168 -20 53 -8 54 -7 32 56 -9 24 -18 73 -20 108 -5 71
11 114 68 179 54 61 58 69 44 69 -6 0 -43 4 -82 8 -38 5 -78 8 -87 7 -10 0
-18 3 -18 8 0 5 22 55 50 111 27 56 48 105 46 108 -2 3 -7 33 -10 66 -4 33 -9
78 -11 100 -3 22 -7 63 -10 90 -7 72 -23 113 -62 169 -25 34 -33 56 -30 73 5
27 24 17 -290 164 -113 52 -113 59 20 200 49 51 97 109 107 129 21 41 67 179
75 225 2 17 9 46 15 65 5 19 10 40 10 47 0 7 -42 -6 -106 -32 -108 -46 -271
-103 -308 -109 -15 -2 -33 10 -59 41 -44 49 -129 102 -203 127 -147 48 -230
55 -341 27z"/>
</g>
</svg>
